<svg width="403" height="98" viewBox="0 0 403 98" fill="none" xmlns="http://www.w3.org/2000/svg">
<path d="M150.897 75.015C148.166 75.015 145.564 74.5883 143.089 73.735C140.614 72.8817 138.46 71.687 136.625 70.151C134.79 68.615 133.446 66.8443 132.593 64.839C132.166 63.943 132.166 63.111 132.593 62.343C133.062 61.575 133.83 61.0843 134.897 60.871C135.665 60.7003 136.412 60.8283 137.137 61.255C137.905 61.639 138.481 62.2363 138.865 63.047C139.377 64.1137 140.209 65.095 141.361 65.991C142.556 66.887 143.985 67.6123 145.649 68.167C147.313 68.7217 149.062 68.999 150.897 68.999C152.945 68.999 154.822 68.679 156.529 68.039C158.278 67.399 159.686 66.4817 160.753 65.287C161.82 64.0497 162.353 62.535 162.353 60.743C162.353 58.4817 161.457 56.455 159.665 54.663C157.916 52.871 155.014 51.7617 150.961 51.335C145.67 50.823 141.51 49.2657 138.481 46.663C135.452 44.0603 133.937 40.839 133.937 36.999C133.937 34.183 134.726 31.7937 136.305 29.831C137.884 27.8683 140.017 26.375 142.705 25.351C145.436 24.327 148.465 23.815 151.793 23.815C154.396 23.815 156.657 24.1777 158.577 24.903C160.54 25.6283 162.246 26.631 163.697 27.911C165.148 29.191 166.406 30.7057 167.473 32.455C168.07 33.3937 168.305 34.2897 168.177 35.143C168.092 35.9537 167.686 36.5937 166.961 37.063C166.15 37.575 165.276 37.6817 164.337 37.383C163.398 37.0843 162.694 36.5297 162.225 35.719C161.542 34.4817 160.71 33.4363 159.729 32.583C158.748 31.7297 157.596 31.0683 156.273 30.599C154.95 30.087 153.393 29.831 151.601 29.831C148.444 29.7883 145.798 30.3857 143.665 31.623C141.532 32.8177 140.465 34.6737 140.465 37.191C140.465 38.471 140.785 39.7083 141.425 40.903C142.108 42.055 143.324 43.0577 145.073 43.911C146.865 44.7643 149.425 45.3617 152.753 45.703C157.83 46.215 161.777 47.7723 164.593 50.375C167.452 52.935 168.881 56.327 168.881 60.551C168.881 62.983 168.369 65.095 167.345 66.887C166.364 68.679 165.02 70.1937 163.313 71.431C161.649 72.6257 159.729 73.5217 157.553 74.119C155.42 74.7163 153.201 75.015 150.897 75.015ZM182.352 74.375C181.413 74.375 180.624 74.0763 179.984 73.479C179.386 72.839 179.088 72.0497 179.088 71.111V42.631C179.088 41.6497 179.386 40.8603 179.984 40.263C180.624 39.6657 181.413 39.367 182.352 39.367C183.333 39.367 184.122 39.6657 184.72 40.263C185.317 40.8603 185.616 41.6497 185.616 42.631V71.111C185.616 72.0497 185.317 72.839 184.72 73.479C184.122 74.0763 183.333 74.375 182.352 74.375ZM182.352 33.671C181.2 33.671 180.197 33.2657 179.344 32.455C178.533 31.6017 178.128 30.599 178.128 29.447C178.128 28.295 178.533 27.3137 179.344 26.503C180.197 25.6497 181.2 25.223 182.352 25.223C183.504 25.223 184.485 25.6497 185.296 26.503C186.149 27.3137 186.576 28.295 186.576 29.447C186.576 30.599 186.149 31.6017 185.296 32.455C184.485 33.2657 183.504 33.671 182.352 33.671ZM210.496 74.631C207.509 74.631 204.736 74.183 202.176 73.287C199.659 72.3483 197.696 71.175 196.288 69.767C195.648 69.0843 195.371 68.3163 195.456 67.463C195.584 66.567 196.011 65.8417 196.736 65.287C197.589 64.6043 198.421 64.327 199.232 64.455C200.085 64.5403 200.811 64.903 201.408 65.543C202.133 66.3537 203.285 67.1217 204.864 67.847C206.485 68.5297 208.277 68.871 210.24 68.871C212.715 68.871 214.592 68.4657 215.872 67.655C217.195 66.8443 217.877 65.799 217.92 64.519C217.963 63.239 217.344 62.1297 216.064 61.191C214.827 60.2523 212.544 59.4843 209.216 58.887C204.907 58.0337 201.771 56.7537 199.808 55.047C197.888 53.3403 196.928 51.2497 196.928 48.775C196.928 46.599 197.568 44.807 198.848 43.399C200.128 41.9483 201.771 40.8817 203.776 40.199C205.781 39.4737 207.872 39.111 210.048 39.111C212.864 39.111 215.36 39.559 217.536 40.455C219.712 41.351 221.44 42.5883 222.72 44.167C223.317 44.8497 223.595 45.575 223.552 46.343C223.509 47.0683 223.147 47.687 222.464 48.199C221.781 48.6683 220.971 48.8177 220.032 48.647C219.093 48.4763 218.304 48.0923 217.664 47.495C216.597 46.471 215.445 45.767 214.208 45.383C212.971 44.999 211.541 44.807 209.92 44.807C208.043 44.807 206.443 45.127 205.12 45.767C203.84 46.407 203.2 47.3457 203.2 48.583C203.2 49.351 203.392 50.055 203.776 50.695C204.203 51.2923 205.013 51.847 206.208 52.359C207.403 52.8283 209.152 53.2977 211.456 53.767C214.656 54.407 217.173 55.2177 219.008 56.199C220.885 57.1803 222.229 58.3323 223.04 59.655C223.851 60.935 224.256 62.4283 224.256 64.135C224.256 66.0977 223.723 67.8683 222.656 69.447C221.632 71.0257 220.096 72.2843 218.048 73.223C216.043 74.1617 213.525 74.631 210.496 74.631ZM245.246 74.375C243.113 74.375 241.193 73.8417 239.486 72.775C237.779 71.6657 236.435 70.1723 235.454 68.295C234.473 66.4177 233.982 64.3057 233.982 61.959V31.431C233.982 30.4923 234.281 29.7243 234.878 29.127C235.475 28.5297 236.243 28.231 237.182 28.231C238.121 28.231 238.889 28.5297 239.486 29.127C240.083 29.7243 240.382 30.4923 240.382 31.431V61.959C240.382 63.6657 240.851 65.095 241.79 66.247C242.729 67.399 243.881 67.975 245.246 67.975H247.422C248.19 67.975 248.83 68.2737 249.342 68.871C249.897 69.4683 250.174 70.2363 250.174 71.175C250.174 72.1137 249.811 72.8817 249.086 73.479C248.403 74.0763 247.507 74.375 246.398 74.375H245.246ZM231.038 46.151C230.142 46.151 229.417 45.895 228.862 45.383C228.307 44.871 228.03 44.231 228.03 43.463C228.03 42.6097 228.307 41.927 228.862 41.415C229.417 40.903 230.142 40.647 231.038 40.647H245.822C246.718 40.647 247.443 40.903 247.998 41.415C248.553 41.927 248.83 42.6097 248.83 43.463C248.83 44.231 248.553 44.871 247.998 45.383C247.443 45.895 246.718 46.151 245.822 46.151H231.038ZM274.646 74.631C271.104 74.631 267.947 73.8843 265.174 72.391C262.443 70.855 260.288 68.7643 258.71 66.119C257.174 63.431 256.406 60.359 256.406 56.903C256.406 53.4043 257.131 50.3323 258.582 47.687C260.075 44.999 262.123 42.9083 264.726 41.415C267.328 39.879 270.315 39.111 273.686 39.111C277.014 39.111 279.872 39.8577 282.262 41.351C284.651 42.8017 286.464 44.8283 287.701 47.431C288.982 49.991 289.622 52.9563 289.622 56.327C289.622 57.1377 289.344 57.8203 288.79 58.375C288.235 58.887 287.531 59.143 286.678 59.143H260.885V54.023H286.486L283.862 55.815C283.819 53.6817 283.392 51.783 282.582 50.119C281.771 48.4123 280.619 47.0683 279.126 46.087C277.632 45.1057 275.819 44.615 273.686 44.615C271.254 44.615 269.163 45.1483 267.414 46.215C265.707 47.2817 264.406 48.7537 263.51 50.631C262.614 52.4657 262.166 54.5563 262.166 56.903C262.166 59.2497 262.699 61.3403 263.766 63.175C264.832 65.0097 266.304 66.4603 268.182 67.527C270.059 68.5937 272.214 69.127 274.646 69.127C275.968 69.127 277.312 68.8923 278.678 68.423C280.086 67.911 281.216 67.335 282.07 66.695C282.71 66.2257 283.392 65.991 284.118 65.991C284.886 65.9483 285.547 66.1617 286.102 66.631C286.827 67.271 287.211 67.975 287.254 68.743C287.296 69.511 286.955 70.1723 286.229 70.727C284.779 71.879 282.966 72.8177 280.79 73.543C278.656 74.2683 276.608 74.631 274.646 74.631ZM343.9 74.439C342.961 74.439 342.172 74.1403 341.532 73.543C340.934 72.903 340.636 72.1137 340.636 71.175V52.871C340.636 50.183 339.974 48.199 338.652 46.919C337.329 45.5963 335.601 44.935 333.468 44.935C331.249 44.935 329.414 45.703 327.964 47.239C326.556 48.775 325.852 50.7377 325.852 53.127H320.54C320.54 50.3537 321.137 47.9217 322.332 45.831C323.526 43.6977 325.19 42.0337 327.324 40.839C329.5 39.6443 331.974 39.047 334.748 39.047C337.18 39.047 339.334 39.5803 341.212 40.647C343.089 41.7137 344.54 43.2923 345.564 45.383C346.63 47.431 347.164 49.927 347.164 52.871V71.175C347.164 72.1137 346.865 72.903 346.268 73.543C345.67 74.1403 344.881 74.439 343.9 74.439ZM301.212 74.439C300.273 74.439 299.484 74.1403 298.844 73.543C298.246 72.903 297.948 72.1137 297.948 71.175V42.695C297.948 41.7137 298.246 40.9243 298.844 40.327C299.484 39.7297 300.273 39.431 301.212 39.431C302.193 39.431 302.982 39.7297 303.58 40.327C304.177 40.9243 304.476 41.7137 304.476 42.695V71.175C304.476 72.1137 304.177 72.903 303.58 73.543C302.982 74.1403 302.193 74.439 301.212 74.439ZM322.588 74.439C321.649 74.439 320.86 74.1403 320.22 73.543C319.622 72.903 319.324 72.1137 319.324 71.175V52.871C319.324 50.183 318.662 48.199 317.34 46.919C316.017 45.5963 314.289 44.935 312.156 44.935C309.937 44.935 308.102 45.703 306.652 47.239C305.201 48.775 304.476 50.7377 304.476 53.127H300.444C300.444 50.3537 300.998 47.9217 302.108 45.831C303.217 43.6977 304.753 42.0337 306.716 40.839C308.678 39.6443 310.918 39.047 313.436 39.047C315.868 39.047 318.022 39.5803 319.9 40.647C321.777 41.7137 323.228 43.2923 324.252 45.383C325.318 47.431 325.852 49.927 325.852 52.871V71.175C325.852 72.1137 325.553 72.903 324.956 73.543C324.358 74.1403 323.569 74.439 322.588 74.439ZM372.602 74.631C369.487 74.631 366.693 73.863 364.218 72.327C361.743 70.7483 359.781 68.6363 358.33 65.991C356.922 63.303 356.218 60.2737 356.218 56.903C356.218 53.5323 356.986 50.503 358.522 47.815C360.101 45.127 362.213 43.015 364.858 41.479C367.546 39.9003 370.554 39.111 373.882 39.111C377.21 39.111 380.197 39.9003 382.842 41.479C385.487 43.015 387.578 45.127 389.114 47.815C390.693 50.503 391.482 53.5323 391.482 56.903H388.986C388.986 60.2737 388.261 63.303 386.81 65.991C385.402 68.6363 383.461 70.7483 380.986 72.327C378.511 73.863 375.717 74.631 372.602 74.631ZM373.882 68.871C376.058 68.871 377.999 68.359 379.706 67.335C381.413 66.2683 382.757 64.839 383.738 63.047C384.719 61.2123 385.21 59.1643 385.21 56.903C385.21 54.599 384.719 52.551 383.738 50.759C382.757 48.9243 381.413 47.495 379.706 46.471C377.999 45.4043 376.058 44.871 373.882 44.871C371.749 44.871 369.807 45.4043 368.058 46.471C366.351 47.495 364.986 48.9243 363.962 50.759C362.981 52.551 362.49 54.599 362.49 56.903C362.49 59.1643 362.981 61.2123 363.962 63.047C364.986 64.839 366.351 66.2683 368.058 67.335C369.807 68.359 371.749 68.871 373.882 68.871ZM388.218 74.439C387.279 74.439 386.49 74.1403 385.85 73.543C385.253 72.903 384.954 72.1137 384.954 71.175V61.383L386.17 54.599L391.482 56.903V71.175C391.482 72.1137 391.162 72.903 390.522 73.543C389.925 74.1403 389.157 74.439 388.218 74.439Z" fill="#7D7D7D"/>
<path d="M32.6667 44.9167H65.3333C65.9365 44.9127 66.5312 44.7751 67.0749 44.5139C67.6185 44.2527 68.0975 43.8742 68.4775 43.4058C68.8767 42.9466 69.1682 42.4039 69.3307 41.8175C69.4931 41.2311 69.5225 40.6159 69.4167 40.0167L65.3333 19.6C65.1424 18.6638 64.6293 17.8242 63.8832 17.2273C63.1371 16.6304 62.2053 16.3141 61.25 16.3333H36.75C35.7947 16.3141 34.8629 16.6304 34.1168 17.2273C33.3707 17.8242 32.8576 18.6638 32.6667 19.6L28.5833 40.0167C28.4665 40.6098 28.4827 41.2215 28.631 41.8076C28.7793 42.3938 29.0559 42.9396 29.4408 43.4058C29.8295 43.885 30.3216 44.2699 30.8803 44.5315C31.439 44.7932 32.0498 44.9249 32.6667 44.9167ZM40.0983 24.5H57.9017L60.3517 36.75H37.6483L40.0983 24.5ZM89.8333 56.35C89.6424 55.4138 89.1293 54.5742 88.3832 53.9773C87.6371 53.3804 86.7053 53.0641 85.75 53.0833H61.25C60.2947 53.0641 59.3629 53.3804 58.6168 53.9773C57.8707 54.5742 57.3576 55.4138 57.1667 56.35L53.0833 76.7667C52.9665 77.3598 52.9827 77.9715 53.131 78.5577C53.2793 79.1438 53.5559 79.6896 53.9408 80.1558C54.3295 80.635 54.8216 81.0199 55.3803 81.2815C55.939 81.5432 56.5498 81.6749 57.1667 81.6667H89.8333C90.4365 81.6627 91.0312 81.5251 91.5749 81.2639C92.1185 81.0026 92.5975 80.6242 92.9775 80.1558C93.3767 79.6966 93.6682 79.1539 93.8307 78.5675C93.9931 77.9811 94.0225 77.3659 93.9167 76.7667L89.8333 56.35ZM62.1483 73.5L64.5983 61.25H82.4017L84.8517 73.5H62.1483ZM36.75 53.0833H12.25C11.2947 53.0641 10.3629 53.3804 9.61683 53.9773C8.87073 54.5742 8.35757 55.4138 8.16667 56.35L4.08334 76.7667C3.96646 77.3598 3.98275 77.9715 4.13104 78.5577C4.27933 79.1438 4.55592 79.6896 4.94084 80.1558C5.32946 80.635 5.82161 81.0199 6.38032 81.2815C6.93903 81.5432 7.54977 81.6749 8.16667 81.6667H40.8333C41.4365 81.6627 42.0312 81.5251 42.5749 81.2639C43.1185 81.0026 43.5975 80.6242 43.9775 80.1558C44.3767 79.6966 44.6682 79.1539 44.8307 78.5675C44.9931 77.9811 45.0225 77.3659 44.9167 76.7667L40.8333 56.35C40.6424 55.4138 40.1293 54.5742 39.3832 53.9773C38.6371 53.3804 37.7053 53.0641 36.75 53.0833ZM13.1483 73.5L15.5983 61.25H33.4017L35.8517 73.5H13.1483Z" fill="#F96C3F"/>
</svg>
